<?xml version="1.0" encoding="utf-8"?>
<!-- Generator: Adobe Illustrator 26.1.0, SVG Export Plug-In . SVG Version: 6.00 Build 0)  -->
<svg version="1.1" id="Livello_1" xmlns="http://www.w3.org/2000/svg" xmlns:xlink="http://www.w3.org/1999/xlink" x="0px" y="0px"
	 viewBox="0 0 228 241.7" style="enable-background:new 0 0 228 241.7;" xml:space="preserve">
<style type="text/css">
	.st0{fill:#ECDDFB;}
	.st1{fill:#6731A1;}
	.st2{fill:#F8F0FF;}
	.st3{fill:#A866EC;}
</style>
<g>
	<ellipse class="st0" cx="112.8" cy="166.3" rx="32.1" ry="5.5"/>
</g>
<g>
	<path class="st1" d="M142.9,124.2c-0.9,0-1.7-0.7-1.8-1.6c-0.3-1.1,0.4-2.2,1.5-2.4l15.6-3.7c1.1-0.3,2.2,0.4,2.4,1.5
		c0.3,1.1-0.4,2.2-1.5,2.4l-15.6,3.7C143.3,124.2,143.1,124.2,142.9,124.2z"/>
</g>
<g>
	<path class="st1" d="M125.9,165.8c-0.7-0.3-1.2-0.9-1.3-1.7l-2.2-22.4c-0.1-1.1,0.7-2.1,1.8-2.2c1.1-0.1,2.1,0.7,2.2,1.8l2.1,20.5
		l4-0.1c1.1,0,2,0.9,2,2c0,1.1-0.9,2-2,2l-5.8,0.1C126.3,166,126.2,165.9,125.9,165.8z"/>
</g>
<g>
	<path class="st1" d="M102.2,165.9l-5.8-0.1c-1.1,0-2-1-2-2c0-1.1,1-2,2-2l4,0.1l2.1-20.5c0.1-1.1,1.1-1.9,2.2-1.8
		c1.1,0.1,1.9,1.1,1.8,2.2l-2.2,22.4c-0.1,0.8-0.6,1.4-1.3,1.7C102.7,165.9,102.5,166,102.2,165.9z"/>
</g>
<g>
	
		<rect x="111.9" y="100.3" transform="matrix(0.9994 -3.426697e-02 3.426697e-02 0.9994 -4.0796 4.5261)" class="st0" width="36.2" height="41.9"/>
	<path class="st1" d="M112.6,143.8c-0.5,0-1-0.4-1-0.9l-1.4-41.9c0-0.3,0.1-0.5,0.2-0.7c0.2-0.2,0.4-0.3,0.7-0.3l36.2-1.3
		c0.3,0,0.5,0.1,0.7,0.2c0.2,0.2,0.3,0.4,0.3,0.7l1.4,41.9c0,0.6-0.4,1-0.9,1.1L112.6,143.8L112.6,143.8z M112.2,102l1.3,39.9
		l34.2-1.2l-1.3-39.9L112.2,102z"/>
</g>
<g>
	
		<rect x="79.2" y="101.5" transform="matrix(0.9994 -3.426697e-02 3.426697e-02 0.9994 -4.1391 3.347)" class="st2" width="32.7" height="41.9"/>
	<path class="st1" d="M80,144.9c-0.5,0-1-0.4-1-0.9l-1.4-41.9c0-0.3,0.1-0.5,0.2-0.7c0.2-0.2,0.4-0.3,0.7-0.3l32.7-1.1
		c0.6,0,1,0.4,1.1,0.9l1.4,41.9c0,0.3-0.1,0.5-0.2,0.7c-0.2,0.2-0.4,0.3-0.7,0.3L80,144.9L80,144.9z M79.5,103l1.3,39.9l30.8-1
		l-1.3-39.9L79.5,103z"/>
</g>
<g>
	<polygon class="st0" points="111.2,100.9 78.6,102 71.2,90 103.8,88.9 	"/>
	<path class="st1" d="M78.5,103c-0.3,0-0.6-0.2-0.8-0.4l-7.4-12c-0.2-0.3-0.2-0.7-0.1-1c0.1-0.3,0.5-0.5,0.8-0.6l32.7-1.1
		c0.4,0,0.7,0.1,0.9,0.4l7.4,12c0.2,0.3,0.2,0.7,0.1,1c-0.1,0.3-0.5,0.5-0.8,0.6L78.5,103C78.6,103,78.5,103,78.5,103z M72.9,91
		l6.2,10.1l30.4-1L103.3,90L72.9,91z"/>
</g>
<g>
	<polygon class="st2" points="114.7,100.8 147.3,99.6 153.9,87.2 121.2,88.3 	"/>
	<path class="st1" d="M114.6,101.8c-0.3,0-0.6-0.2-0.8-0.4c-0.2-0.3-0.2-0.7-0.1-1l6.5-12.4c0.2-0.3,0.5-0.5,0.8-0.6l32.7-1.1
		c0.4,0,0.7,0.1,0.9,0.4s0.2,0.7,0.1,1l-6.5,12.4c-0.2,0.3-0.5,0.5-0.8,0.6L114.6,101.8C114.7,101.8,114.6,101.8,114.6,101.8z
		 M121.8,89.4l-5.4,10.4l30.4-1l5.4-10.4L121.8,89.4z"/>
</g>
<g>
	<path class="st1" d="M87.4,122.9c-0.2,0-0.3,0-0.5-0.1l-15.3-4.4c-1.1-0.3-1.6-1.4-1.4-2.5c0.3-1.1,1.4-1.6,2.5-1.4l15.3,4.4
		c1.1,0.3,1.6,1.4,1.4,2.5C89.1,122.4,88.3,123,87.4,122.9z"/>
</g>
<g>
	<path class="st1" d="M107.2,134.5l-3.7-4.9c-0.2-0.3-0.6-0.2-0.8,0.1l-3.2,5.2c-0.2,0.3,0.1,0.8,0.5,0.7l1.3,0l0.2,3.4
		c0,0.3,0.3,0.5,0.5,0.4l3.3-0.2c0.3,0,0.5-0.3,0.4-0.5l-0.2-3.4l1.3,0C107.3,135.3,107.5,134.8,107.2,134.5z"/>
</g>
<g>
	<path class="st3" d="M120.2,79.6l-2.6-0.6c-1.1-0.2-2-1.2-2.1-2.3l-0.4-2.6c-0.1-0.5-0.5-0.9-1-0.9l0,0c-0.5,0-0.9,0.4-1,0.9
		l-0.6,2.6c-0.2,1.1-1.2,2-2.3,2.1l-2.6,0.4c-0.5,0.1-0.9,0.5-0.9,1l0,0c0,0.5,0.4,0.9,0.9,1l2.6,0.6c1.1,0.2,2,1.2,2.1,2.3l0.4,2.6
		c0.1,0.5,0.5,0.9,1,0.9l0,0c0.5,0,0.9-0.4,1-0.9l0.6-2.6c0.2-1.1,1.2-2,2.3-2.1l2.6-0.4c0.5-0.1,0.9-0.5,0.9-1l0,0
		C120.9,80.1,120.7,79.6,120.2,79.6z"/>
</g>
<g>
	<path class="st3" d="M101.1,73l-2-0.5c-0.8-0.1-1.5-0.9-1.5-1.7l-0.3-2c-0.1-0.4-0.4-0.6-0.8-0.6l0,0c-0.4,0-0.7,0.3-0.8,0.6
		l-0.5,2c-0.1,0.8-0.9,1.5-1.7,1.5l-2,0.3c-0.4,0.1-0.6,0.4-0.6,0.8l0,0c0,0.4,0.3,0.7,0.6,0.8l2,0.5c0.8,0.1,1.5,0.9,1.5,1.7l0.3,2
		c0.1,0.4,0.4,0.6,0.8,0.6l0,0c0.4,0,0.7-0.3,0.8-0.6l0.5-2c0.1-0.8,0.9-1.5,1.7-1.5l2-0.3c0.4-0.1,0.6-0.4,0.6-0.8l0,0
		C101.7,73.4,101.4,73,101.1,73z"/>
</g>
<g>
	<polygon class="st3" points="95.6,95.5 87.4,95.9 83.5,89.7 91.6,89.5 	"/>
	<path class="st1" d="M87.4,96.9c-0.3,0-0.6-0.2-0.8-0.4l-3.9-6.2c-0.2-0.3-0.2-0.7-0.1-1c0.2-0.3,0.5-0.5,0.8-0.6l8.1-0.3
		c0.3,0,0.7,0.1,0.9,0.4l3.9,6.1c0.2,0.3,0.2,0.7,0.1,1c-0.1,0.3-0.5,0.5-0.8,0.6L87.4,96.9C87.5,96.9,87.4,96.9,87.4,96.9z
		 M85.3,90.7l2.7,4.2l5.8-0.3l-2.7-4.1L85.3,90.7z"/>
</g>
<g>
	<path class="st1" d="M134.2,120.9c0.5,0,1,0.4,1,0.9c0,1.9-0.6,3.7-1.7,4.8c-0.7,0.8-1.8,1.2-2.8,1.3c-1,0.1-2-0.3-2.9-1.1
		c-1.2-1-1.9-2.8-2-4.6c0-0.6,0.4-1,0.9-1.1c0.5,0,1,0.4,1.1,0.9c0,1.3,0.5,2.5,1.3,3.3c0.3,0.3,0.8,0.6,1.5,0.6
		c0.6,0,1.1-0.4,1.3-0.6c0.7-0.8,1.2-2.1,1.1-3.4C133.2,121.3,133.6,120.9,134.2,120.9L134.2,120.9z"/>
</g>
<ellipse transform="matrix(0.9995 -3.181083e-02 3.181083e-02 0.9995 -3.5867 3.9678)" class="st1" cx="122.9" cy="114.7" rx="3.7" ry="5"/>
<ellipse transform="matrix(0.9995 -3.181083e-02 3.181083e-02 0.9995 -3.5649 4.4238)" class="st1" cx="137.2" cy="114.2" rx="3.7" ry="5"/>
</svg>
