<?xml version="1.0" encoding="utf-8"?>
<!-- Generator: Adobe Illustrator 26.1.0, SVG Export Plug-In . SVG Version: 6.00 Build 0)  -->
<svg version="1.1" id="Livello_1" xmlns="http://www.w3.org/2000/svg" xmlns:xlink="http://www.w3.org/1999/xlink" x="0px" y="0px"
	 viewBox="0 0 535.6 241.7" style="enable-background:new 0 0 535.6 241.7;" xml:space="preserve">
<style type="text/css">
	.st0{fill:#A866EC;}
	.st1{fill:#ECDDFB;}
	.st2{fill:#6731A1;}
	.st3{fill:#F8F0FF;}
	.st4{fill:#D8B9F7;}
</style>
<g transform="rotate(0 340.155278796762 287.5025325873271)">
	<g>
		<g>
			<path class="st0" d="M186.6,142.2L186.6,142.2c-1.5,0-2.9-0.3-4.4-0.9c-1.4-0.6-2.7-1.6-3.9-2.8s-2-2.8-2.7-4.8
				c-0.7-1.9-1-4.2-1-6.7l0,0c0-2.6,0.4-4.9,1.1-6.8c0.7-1.8,1.7-3.4,2.9-4.5c1.2-1.2,2.5-2,3.9-2.6c1.4-0.5,2.9-0.8,4.4-0.8l0,0
				c1.4,0,2.7,0.3,3.9,0.8s2.2,1.3,3.1,2.2c0.9,0.9,1.5,2,2,3.2l0,0V99.6h2.8h0.6v0.4c-0.2,0.2-0.3,0.4-0.4,0.7
				c-0.1,0.3-0.1,0.8-0.1,1.5l0,0l0.1,34.9c0,0.8,0,1.5,0.1,2.2s0.2,1.5,0.5,2.2l0,0l-3-0.1c-0.2-0.5-0.4-1.1-0.4-1.7
				c-0.1-0.7-0.1-1.3-0.2-2c0-0.6,0-1.2,0-1.7l0,0c-0.5,1-1.1,2-2,2.9c-0.8,0.9-1.9,1.7-3.1,2.3
				C189.7,141.9,188.2,142.2,186.6,142.2L186.6,142.2z M187.1,139.4L187.1,139.4c1.5,0,2.8-0.3,3.9-0.9c1.1-0.6,2-1.5,2.7-2.6
				s1.2-2.5,1.6-4c0.4-1.5,0.5-3.2,0.5-5l0,0c0-2.7-0.4-5-1.2-6.8s-1.9-3.1-3.2-4s-2.8-1.4-4.4-1.4l0,0c-1.3,0-2.6,0.2-3.7,0.7
				c-1.1,0.5-2.1,1.2-3,2.2c-0.8,1-1.5,2.2-2,3.6c-0.5,1.5-0.7,3.1-0.7,5.1l0,0c0,2.9,0.4,5.2,1.2,7.2c0.8,1.9,1.9,3.4,3.3,4.3
				C183.7,139,185.3,139.4,187.1,139.4L187.1,139.4z M225.8,141.5h-18v-2.6h7.8v-23.4h-7.4V113h10.5v26h7.2v2.5H225.8z M216.9,105.8
				L216.9,105.8c-0.6,0-1.2-0.2-1.7-0.7s-0.7-1-0.7-1.7l0,0c0-0.7,0.2-1.3,0.7-1.8s1-0.7,1.7-0.7l0,0c0.7,0,1.2,0.2,1.7,0.7
				s0.7,1.1,0.7,1.7l0,0c0,0.6-0.2,1.2-0.7,1.7C218.1,105.6,217.5,105.8,216.9,105.8z M246.7,142.2L246.7,142.2
				c-1.6,0-3-0.2-4.4-0.5s-2.7-0.8-4-1.5s-2.4-1.5-3.5-2.5l0,0l1.8-2.8l0.4-0.4l0.4,0.2c0,0.3,0.1,0.5,0.2,0.8
				c0.1,0.3,0.4,0.7,0.9,1.2l0,0c1,0.8,2.2,1.5,3.6,2c1.4,0.5,3,0.8,4.8,0.8l0,0c1.9,0,3.5-0.2,4.7-0.6s2.1-1,2.8-1.9
				c0.6-0.8,1-1.8,1-3l0,0c0-0.7-0.2-1.4-0.5-2s-0.9-1.1-1.6-1.6c-0.7-0.5-1.6-0.9-2.6-1.3c-1-0.4-2.3-0.8-3.7-1.2l0,0
				c-2.1-0.5-3.9-1.2-5.4-2c-1.6-0.8-2.8-1.7-3.7-2.8c-0.9-1.1-1.4-2.3-1.4-3.7l0,0c0-1.4,0.4-2.7,1.2-3.8c0.8-1.1,2-1.9,3.5-2.5
				s3.4-0.9,5.6-0.9l0,0c1.3,0,2.5,0.1,3.6,0.2c1.1,0.2,2,0.4,2.9,0.8s1.7,0.8,2.4,1.3s1.4,1.1,2.1,1.9l0,0l-1.8,2.2l-0.4,0.5
				l-0.3-0.3c0-0.3-0.1-0.6-0.2-0.9c-0.1-0.3-0.5-0.7-1-1.2l0,0c-0.9-0.7-2-1.3-3.2-1.6c-1.2-0.4-2.5-0.6-4-0.6l0,0
				c-2.4,0-4.2,0.4-5.5,1.2c-1.3,0.8-2,1.9-2,3.4l0,0c0,0.9,0.3,1.7,0.9,2.4c0.6,0.7,1.6,1.4,2.9,2c1.3,0.6,3,1.2,5,1.8l0,0
				c2.2,0.6,4.1,1.3,5.6,2c1.5,0.8,2.6,1.6,3.3,2.6c0.7,1,1.1,2.2,1.1,3.6l0,0c0,1.6-0.4,3-1.2,4.3c-0.8,1.3-2,2.3-3.7,3.1
				C251.6,141.8,249.4,142.2,246.7,142.2L246.7,142.2z M279.3,142L279.3,142c-1.8,0-3.3-0.3-4.4-0.9c-1.1-0.6-1.9-1.6-2.5-2.9
				c-0.5-1.3-0.9-3-1-5s-0.1-4.4-0.1-7.2l0,0l0.8-20.7l3.2-0.4l0.6-0.1l0.1,0.4c-0.2,0.2-0.4,0.5-0.5,0.8s-0.2,0.8-0.2,1.5l0,0
				l-0.4,6.7l0.1,1l-0.4,11c-0.1,3.4-0.1,6,0.2,7.9c0.3,1.9,0.8,3.3,1.6,4s2,1.2,3.6,1.2l0,0c1.4,0,2.7-0.3,3.9-0.8
				c1.2-0.5,2.5-1.2,3.6-2.1l0,0l1.1,2.4c-1.4,1-2.9,1.8-4.4,2.3S280.9,142,279.3,142L279.3,142z M264.8,115.6V113h20.7v2.6H264.8z
				 M297.9,141.6V113h3.2l-0.2,8.4l-0.5-0.4c0.3-1.3,0.7-2.6,1.4-3.6c0.7-1.1,1.4-2,2.4-2.7c0.9-0.8,2-1.3,3.1-1.7
				c1.1-0.4,2.3-0.6,3.4-0.6l0,0c1.4,0,2.9,0.3,4.3,0.8s2.6,1.3,3.7,2.4l0,0l-1.5,2.3l-0.2,0.5l-0.4-0.2c0-0.3-0.1-0.6-0.2-0.8
				c-0.2-0.3-0.6-0.6-1.1-1l0,0c-0.8-0.5-1.5-0.8-2.2-1s-1.4-0.3-2.2-0.3l0,0c-1.3,0-2.5,0.3-3.7,0.8s-2.2,1.2-3.1,2.2
				s-1.6,2.1-2.1,3.5s-0.8,2.9-0.8,4.7l0,0v15.5h-3.3V141.6z M335.5,142L335.5,142c-2.6,0-4.9-0.6-6.8-1.9c-1.9-1.3-3.4-3-4.4-5.2
				s-1.5-4.8-1.5-7.7l0,0c0-2.9,0.5-5.5,1.5-7.8c1-2.2,2.5-4,4.4-5.2c1.9-1.3,4.1-1.9,6.8-1.9l0,0c2.6,0,4.8,0.6,6.7,1.9
				s3.4,3,4.4,5.2s1.6,4.8,1.6,7.8l0,0c0,2.9-0.5,5.5-1.6,7.7c-1,2.2-2.5,4-4.4,5.2C340.3,141.4,338.1,142,335.5,142z M335.5,139.4
				L335.5,139.4c2,0,3.7-0.5,5.1-1.6s2.5-2.5,3.2-4.4c0.8-1.9,1.1-4,1.1-6.3l0,0c0-2.5-0.4-4.6-1.2-6.5s-1.9-3.2-3.4-4.3
				c-1.4-1-3.1-1.5-4.9-1.5l0,0c-1.9,0-3.6,0.5-5,1.6c-1.4,1-2.5,2.5-3.3,4.3s-1.1,3.9-1.1,6.3l0,0c0,2.4,0.4,4.5,1.1,6.4
				c0.8,1.8,1.9,3.3,3.3,4.3C331.8,138.9,333.5,139.4,335.5,139.4z M375.5,141.5h-20.9v-2.6h8.9v-36.8H355v-2.5h11.7v39.3h8.9v2.6
				H375.5z M395.8,142.2L395.8,142.2c-2,0-3.8-0.3-5.5-1c-1.6-0.7-3.1-1.6-4.2-2.9c-1.2-1.3-2.1-2.8-2.7-4.7c-0.7-1.8-1-3.9-1-6.2
				l0,0c0-2.4,0.3-4.6,1-6.5s1.6-3.4,2.7-4.7c1.2-1.3,2.5-2.2,4-2.9c1.5-0.7,3.2-1,4.9-1l0,0c1.6,0,3.2,0.3,4.6,0.8s2.6,1.4,3.7,2.5
				s1.9,2.5,2.5,4.2s0.9,3.7,0.9,5.9l0,0c0,0.3,0,0.6,0,0.8c0,0.2,0,0.5-0.1,0.9l0,0h-21.2c0,2.1,0.3,3.9,0.9,5.4
				c0.5,1.5,1.3,2.8,2.2,3.8c0.9,1,2,1.8,3.3,2.3s2.7,0.8,4.2,0.8l0,0c1.2,0,2.3-0.1,3.3-0.4s1.9-0.7,2.6-1.3s1.5-1.2,2.2-2l0,0
				l1.9,1.7c-0.8,1-1.7,1.8-2.7,2.5s-2.2,1.2-3.4,1.6C398.6,142,397.3,142.2,395.8,142.2z M385.5,124.8L385.5,124.8h18
				c0-1.6-0.2-3-0.6-4.3s-1-2.3-1.8-3.2c-0.8-0.9-1.7-1.5-2.7-2c-1.1-0.4-2.2-0.7-3.5-0.7l0,0c-1.3,0-2.6,0.2-3.7,0.7s-2,1.1-2.9,2
				c-0.8,0.9-1.5,2-1.9,3.2C386,121.9,385.7,123.3,385.5,124.8z M424.5,142.2L424.5,142.2c-1.6,0-3-0.2-4.4-0.5s-2.7-0.8-4-1.5
				s-2.4-1.5-3.5-2.5l0,0l1.8-2.8l0.4-0.4l0.4,0.2c0,0.3,0.1,0.5,0.2,0.8s0.4,0.7,0.9,1.2l0,0c1,0.8,2.2,1.5,3.6,2s3,0.8,4.8,0.8
				l0,0c1.9,0,3.5-0.2,4.7-0.6c1.2-0.4,2.1-1,2.8-1.9c0.6-0.8,0.9-1.8,0.9-3l0,0c0-0.7-0.2-1.4-0.5-2s-0.8-1.1-1.5-1.6
				s-1.6-0.9-2.6-1.3c-1.1-0.4-2.3-0.8-3.7-1.2l0,0c-2.1-0.5-3.9-1.2-5.5-2s-2.8-1.7-3.7-2.8c-0.9-1.1-1.4-2.3-1.4-3.7l0,0
				c0-1.4,0.4-2.7,1.2-3.8c0.8-1.1,2-1.9,3.5-2.5s3.4-0.9,5.6-0.9l0,0c1.3,0,2.5,0.1,3.6,0.2c1,0.2,2,0.4,2.9,0.8s1.7,0.8,2.4,1.3
				c0.7,0.5,1.4,1.1,2.1,1.9l0,0l-1.8,2.2l-0.4,0.5l-0.3-0.3c0-0.3-0.1-0.6-0.2-0.9s-0.5-0.7-1-1.2l0,0c-0.9-0.7-2-1.3-3.2-1.6
				c-1.2-0.4-2.5-0.6-4-0.6l0,0c-2.4,0-4.2,0.4-5.5,1.2c-1.3,0.8-2,1.9-2,3.4l0,0c0,0.9,0.3,1.7,0.9,2.4c0.6,0.7,1.6,1.4,2.9,2
				s3,1.2,5.1,1.8l0,0c2.2,0.6,4.1,1.3,5.6,2c1.5,0.8,2.6,1.6,3.3,2.6c0.7,1,1.1,2.2,1.1,3.6l0,0c0,1.6-0.4,3-1.2,4.3
				c-0.8,1.3-2,2.3-3.7,3.1C429.4,141.8,427.2,142.2,424.5,142.2L424.5,142.2z M454.1,142.2L454.1,142.2c-1.6,0-3-0.2-4.4-0.5
				s-2.7-0.8-4-1.5s-2.4-1.5-3.5-2.5l0,0l1.8-2.8l0.4-0.4l0.4,0.2c0,0.3,0.1,0.5,0.2,0.8s0.4,0.7,0.9,1.2l0,0c1,0.8,2.2,1.5,3.6,2
				s3,0.8,4.8,0.8l0,0c1.9,0,3.4-0.2,4.7-0.6c1.2-0.4,2.1-1,2.8-1.9c0.6-0.8,0.9-1.8,0.9-3l0,0c0-0.7-0.2-1.4-0.5-2
				s-0.8-1.1-1.5-1.6s-1.6-0.9-2.6-1.3c-1.1-0.4-2.3-0.8-3.7-1.2l0,0c-2.1-0.5-3.9-1.2-5.5-2s-2.8-1.7-3.7-2.8
				c-0.9-1.1-1.4-2.3-1.4-3.7l0,0c0-1.4,0.4-2.7,1.2-3.8c0.8-1.1,2-1.9,3.5-2.5s3.4-0.9,5.6-0.9l0,0c1.3,0,2.5,0.1,3.6,0.2
				c1,0.2,2,0.4,2.9,0.8s1.7,0.8,2.4,1.3c0.7,0.5,1.4,1.1,2.1,1.9l0,0l-1.8,2.2l-0.4,0.5l-0.3-0.3c0-0.3-0.1-0.6-0.2-0.9
				s-0.5-0.7-1-1.2l0,0c-0.9-0.7-2-1.3-3.2-1.6c-1.2-0.4-2.5-0.6-4-0.6l0,0c-2.4,0-4.2,0.4-5.5,1.2c-1.3,0.8-2,1.9-2,3.4l0,0
				c0,0.9,0.3,1.7,0.9,2.4c0.6,0.7,1.6,1.4,2.9,2s3,1.2,5,1.8l0,0c2.2,0.6,4.1,1.3,5.6,2c1.5,0.8,2.6,1.6,3.3,2.6
				c0.7,1,1.1,2.2,1.1,3.6l0,0c0,1.6-0.4,3-1.2,4.3c-0.8,1.3-2,2.3-3.7,3.1C459,141.8,456.8,142.2,454.1,142.2L454.1,142.2z"/>
		</g>
	</g>
</g>
<g>
	<ellipse class="st1" cx="112.8" cy="166.3" rx="32.1" ry="5.5"/>
</g>
<g>
	<path class="st2" d="M144.5,124c-0.9,0-1.7-0.6-1.9-1.5c-0.3-1.1,0.3-2.2,1.4-2.5l15.4-4.4c1.1-0.3,2.2,0.3,2.5,1.4
		s-0.3,2.2-1.4,2.5l-15.4,4.4C144.9,124,144.7,124,144.5,124z"/>
</g>
<g>
	<path class="st2" d="M133.6,163.9c-0.7,0-1.4-0.4-1.8-1.1l-10.1-20.1c-0.5-1-0.1-2.2,0.9-2.7c1-0.5,2.2-0.1,2.7,0.9l9.3,18.4
		l3.7-1.5c1-0.4,2.2,0.1,2.6,1.1c0.4,1-0.1,2.2-1.1,2.6l-5.4,2.2C134.1,163.9,133.9,163.9,133.6,163.9z"/>
</g>
<g>
	<path class="st2" d="M97.3,164c-1.1,0-2-0.9-2-2v-5.8c0-0.5,0.2-1.1,0.6-1.4c0.4-0.4,0.9-0.6,1.5-0.6c4.4,0.2,7.8-0.9,10.2-3
		c3.3-3,3.5-7.5,3.5-7.5c0-1.1,0.9-2,2.1-1.9c1.1,0,2,0.9,1.9,2c0,0.2-0.2,6.1-4.7,10.3c-2.8,2.6-6.5,4-11,4.2v3.8
		C99.3,163.1,98.4,164,97.3,164z"/>
</g>
<g>
	
		<rect x="113.4" y="100.7" transform="matrix(0.9971 -7.643107e-02 7.643107e-02 0.9971 -8.9134 10.407)" class="st1" width="36.2" height="41.9"/>
	<path class="st2" d="M115.1,144.9c-0.5,0-1-0.4-1-0.9l-3.2-41.8c0-0.3,0.1-0.5,0.2-0.7c0.2-0.2,0.4-0.3,0.7-0.3l36.1-2.8
		c0.3,0,0.5,0.1,0.7,0.2c0.2,0.2,0.3,0.4,0.3,0.7l3.2,41.8c0,0.6-0.4,1-0.9,1.1L115.1,144.9C115.1,144.9,115.1,144.9,115.1,144.9z
		 M112.9,103.1l3,39.8l34.1-2.6l-3-39.8L112.9,103.1z"/>
</g>
<g>
	
		<rect x="80.8" y="103.3" transform="matrix(0.9971 -7.643107e-02 7.643107e-02 0.9971 -9.2128 7.7889)" class="st3" width="32.7" height="41.9"/>
	<path class="st2" d="M82.5,147.4c-0.5,0-1-0.4-1-0.9l-3.2-41.8c0-0.3,0.1-0.5,0.2-0.7c0.2-0.2,0.4-0.3,0.7-0.3l32.6-2.5
		c0.6,0,1,0.4,1.1,0.9l3.2,41.8c0,0.3-0.1,0.5-0.2,0.7c-0.2,0.2-0.4,0.3-0.7,0.3L82.5,147.4C82.5,147.4,82.5,147.4,82.5,147.4z
		 M80.3,105.5l3,39.8L114,143l-3-39.8L80.3,105.5z"/>
</g>
<g>
	<polygon class="st1" points="111.9,102.1 79.3,104.6 71.4,92.9 104,90.4 	"/>
	<path class="st2" d="M79.3,105.6c-0.3,0-0.6-0.2-0.8-0.4l-7.9-11.7c-0.2-0.3-0.2-0.7-0.1-1s0.5-0.5,0.8-0.6l32.6-2.5
		c0.4,0,0.7,0.1,0.9,0.4l7.9,11.7c0.2,0.3,0.2,0.7,0.1,1s-0.5,0.5-0.8,0.6L79.3,105.6C79.4,105.6,79.3,105.6,79.3,105.6z M73.2,93.8
		l6.6,9.8l30.3-2.3l-6.6-9.8L73.2,93.8z"/>
</g>
<g>
	<polygon class="st3" points="115.3,101.8 147.9,99.3 153.9,86.6 121.3,89.1 	"/>
	<path class="st2" d="M115.3,102.8c-0.3,0-0.6-0.2-0.8-0.4c-0.2-0.3-0.2-0.7-0.1-1l6-12.7c0.2-0.3,0.5-0.5,0.8-0.6l32.6-2.5
		c0.4,0,0.7,0.1,0.9,0.4c0.2,0.3,0.2,0.7,0.1,1l-6,12.7c-0.2,0.3-0.5,0.5-0.8,0.6L115.3,102.8C115.4,102.8,115.3,102.8,115.3,102.8z
		 M122,90.1l-5,10.6l30.3-2.3l5-10.6L122,90.1z"/>
</g>
<g>
	<path class="st2" d="M89,125.1c-0.2,0-0.3,0-0.5-0.1L73,121.3c-1.1-0.3-1.7-1.3-1.5-2.4c0.3-1.1,1.3-1.7,2.4-1.5l15.5,3.7
		c1.1,0.3,1.7,1.3,1.5,2.4C90.7,124.5,89.9,125.1,89,125.1z"/>
</g>
<g>
	<path class="st2" d="M121.6,119.1c-0.5,0-1-0.4-1-0.9c-0.1-1.9,0.4-3.7,1.5-4.9c0.7-0.8,1.7-1.3,2.7-1.4c1-0.1,2,0.2,2.9,1
		c1.2,1,2,2.7,2.2,4.5c0,0.6-0.4,1-0.9,1.1c-0.5,0-1-0.4-1.1-0.9c-0.1-1.3-0.6-2.5-1.4-3.2c-0.3-0.3-0.8-0.6-1.5-0.5
		c-0.6,0-1.1,0.4-1.3,0.7c-0.7,0.8-1.1,2.1-1,3.4C122.6,118.6,122.2,119.1,121.6,119.1C121.6,119.1,121.6,119.1,121.6,119.1z"/>
</g>
<g>
	<path class="st2" d="M135.9,117.9c-0.5,0-1-0.4-1-0.9c-0.1-1.9,0.4-3.7,1.5-4.9c0.7-0.8,1.7-1.3,2.7-1.4c1-0.1,2,0.2,2.9,1
		c1.2,1,2,2.7,2.2,4.5c0,0.6-0.4,1-0.9,1.1c-0.5,0-1-0.4-1.1-0.9c-0.1-1.3-0.6-2.5-1.4-3.2c-0.3-0.3-0.8-0.6-1.5-0.5
		c-0.6,0-1.1,0.4-1.3,0.7c-0.7,0.8-1.1,2.1-1,3.4C136.9,117.4,136.5,117.9,135.9,117.9C135.9,117.9,135.9,117.9,135.9,117.9z"/>
</g>
<g>
	<path class="st4" d="M138.2,122.8l-10.9,1c0,0-0.3,6.5,6.5,6C139.1,129.4,138.2,122.8,138.2,122.8z"/>
	<path class="st2" d="M133.1,130.8c-2,0-3.6-0.6-4.8-1.7c-2.1-2.1-2-5.2-2-5.3c0-0.5,0.4-0.9,0.9-1l10.9-1c0.5-0.1,1,0.3,1.1,0.9
		c0,0.2,0.5,3.8-1.4,6.2c-0.9,1.2-2.2,1.8-3.9,1.9C133.6,130.8,133.3,130.8,133.1,130.8z M128.4,124.7c0.1,0.8,0.4,2.1,1.4,3
		c0.9,0.9,2.3,1.3,4,1.1c1.1-0.1,1.9-0.5,2.5-1.2c0.9-1.1,1-2.7,1-3.7L128.4,124.7z"/>
</g>
<g>
	<path class="st2" d="M109.3,135.8l-3.9-4.7c-0.2-0.3-0.6-0.2-0.8,0.1l-3,5.3c-0.2,0.3,0.1,0.8,0.5,0.7l1.3-0.1l0.3,3.4
		c0,0.3,0.3,0.5,0.5,0.4l3.3-0.3c0.3,0,0.5-0.3,0.4-0.5l-0.3-3.4l1.3-0.1C109.4,136.6,109.6,136.1,109.3,135.8z"/>
</g>
<g>
	<path class="st0" d="M119.9,80.4l-2.6-0.5c-1.1-0.2-2-1.1-2.2-2.2l-0.5-2.6c-0.1-0.5-0.5-0.9-1-0.9l0,0c-0.5,0-0.9,0.4-1,0.9
		l-0.5,2.6c-0.2,1.1-1.1,2-2.2,2.2l-2.6,0.5c-0.5,0.1-0.9,0.5-0.9,1l0,0c0,0.5,0.4,0.9,0.9,1l2.6,0.5c1.1,0.2,2,1.1,2.2,2.2l0.5,2.6
		c0.1,0.5,0.5,0.9,1,0.9l0,0c0.5,0,0.9-0.4,1-0.9l0.5-2.6c0.2-1.1,1.1-2,2.2-2.2l2.6-0.5c0.5-0.1,0.9-0.5,0.9-1l0,0
		C120.7,80.9,120.4,80.4,119.9,80.4z"/>
</g>
<g>
	<path class="st0" d="M100.6,74.6l-2-0.4c-0.8-0.1-1.5-0.8-1.6-1.6l-0.4-2c-0.1-0.4-0.4-0.6-0.8-0.6l0,0c-0.4,0-0.7,0.3-0.8,0.6
		l-0.4,2c-0.1,0.8-0.8,1.5-1.6,1.6l-2,0.4c-0.4,0.1-0.6,0.4-0.6,0.8l0,0c0,0.4,0.3,0.7,0.6,0.8l2,0.4c0.8,0.1,1.5,0.8,1.6,1.6l0.4,2
		c0.1,0.4,0.4,0.6,0.8,0.6l0,0c0.4,0,0.7-0.3,0.8-0.6l0.4-2c0.1-0.8,0.8-1.5,1.6-1.6l2-0.4c0.4-0.1,0.6-0.4,0.6-0.8l0,0
		C101.2,75,100.9,74.6,100.6,74.6z"/>
</g>
<g>
	<polygon class="st0" points="96,97.4 87.9,98.1 83.7,92.1 91.8,91.5 	"/>
	<path class="st2" d="M87.9,99.1c-0.3,0-0.6-0.2-0.8-0.4l-4.2-6c-0.2-0.3-0.2-0.7-0.1-1c0.2-0.3,0.5-0.5,0.8-0.6l8.1-0.6
		c0.3,0,0.7,0.1,0.9,0.4l4.2,5.9c0.2,0.3,0.2,0.7,0.1,1s-0.5,0.5-0.8,0.6L87.9,99.1C88,99.1,87.9,99.1,87.9,99.1z M85.5,93l2.9,4.1
		l5.8-0.5l-2.9-4L85.5,93z"/>
</g>
</svg>
